<?xml version="1.0" standalone="no"?>
<!DOCTYPE svg PUBLIC "-//W3C//DTD SVG 20010904//EN"
 "http://www.w3.org/TR/2001/REC-SVG-20010904/DTD/svg10.dtd">
<svg version="1.0" xmlns="http://www.w3.org/2000/svg"
 width="1053.000000pt" height="1053.000000pt" viewBox="0 0 1053.000000 1053.000000"
 preserveAspectRatio="xMidYMid meet">
<metadata>
Created by potrace 1.14, written by Peter Selinger 2001-2017
</metadata>
<g transform="translate(0.000000,1053.000000) scale(0.100000,-0.100000)"
fill="#000000" stroke="none">
<path d="M5510 10519 c-8 -5 -90 -33 -182 -63 -153 -51 -213 -76 -293 -126
-31 -20 -63 -38 -106 -61 -19 -11 -64 -14 -180 -13 -92 1 -159 -2 -166 -8 -9
-7 -13 -6 -13 3 0 9 -3 10 -8 4 -4 -6 -36 -24 -72 -39 -36 -16 -92 -41 -125
-56 -85 -39 -143 -65 -195 -87 -148 -66 -147 -64 -163 -102 -8 -20 -34 -81
-57 -136 -22 -55 -45 -109 -50 -120 -31 -66 -131 -312 -134 -329 -3 -12 -11
-50 -20 -86 -8 -36 -17 -76 -20 -90 -3 -14 -8 -36 -11 -50 -3 -14 -8 -36 -11
-50 -3 -14 -7 -33 -10 -42 -5 -17 -11 -45 -20 -88 -3 -14 -12 -54 -21 -90 -8
-36 -16 -76 -17 -90 -3 -42 -11 -47 -64 -40 -72 9 -144 0 -150 -20 -2 -6 -8
-7 -13 -4 -6 3 -21 -2 -34 -10 -14 -9 -25 -14 -25 -12 0 3 -26 -4 -57 -15 -32
-11 -65 -22 -75 -24 -26 -6 -80 -36 -74 -42 3 -3 -4 -23 -15 -45 -11 -22 -16
-37 -10 -34 6 4 4 -6 -4 -21 -13 -26 -27 -60 -29 -73 -2 -11 -38 -106 -45
-120 -4 -8 -6 -24 -4 -35 17 -94 35 -180 41 -195 3 -8 6 -19 7 -25 10 -86 20
-109 80 -192 35 -49 73 -99 85 -113 19 -24 20 -35 15 -225 -6 -236 -5 -225
-21 -225 -7 0 -19 -6 -26 -13 -7 -8 -25 -20 -38 -27 -14 -7 -65 -40 -113 -72
-49 -32 -97 -58 -106 -58 -10 0 -38 9 -62 19 -76 34 -94 33 -226 -10 -67 -22
-124 -40 -125 -39 -2 1 -15 -5 -30 -13 -24 -12 -69 -64 -133 -152 -11 -15 -25
-32 -30 -39 -6 -6 -26 -31 -45 -56 -19 -25 -38 -46 -42 -48 -5 -2 -8 -9 -8
-16 0 -6 -9 -18 -20 -26 -11 -8 -20 -18 -20 -23 0 -4 -23 -36 -50 -70 -48 -60
-59 -74 -98 -125 -17 -24 -95 -110 -166 -186 -23 -24 -61 -87 -91 -151 -108
-227 -119 -250 -119 -255 -1 -3 -11 -25 -23 -50 -58 -121 -96 -206 -96 -217 0
-7 -3 -13 -7 -13 -3 0 -14 -19 -24 -42 -10 -24 -28 -63 -39 -88 -12 -25 -22
-48 -23 -52 -1 -5 -3 -9 -4 -10 -6 -7 -4 -108 2 -108 4 0 4 -10 0 -22 -4 -13
-7 -36 -6 -53 1 -16 -2 -32 -5 -35 -4 -3 -18 -23 -30 -45 -13 -22 -34 -56 -46
-75 -87 -137 -155 -251 -155 -260 0 -5 -4 -10 -9 -10 -5 0 -13 -10 -17 -22 -4
-13 -10 -25 -14 -28 -10 -8 -120 -189 -120 -199 0 -5 -7 -11 -15 -15 -8 -3
-15 -10 -15 -15 0 -6 -13 -33 -30 -61 -16 -27 -27 -50 -24 -50 2 0 -1 -10 -8
-22 -7 -13 -11 -26 -10 -31 1 -4 -2 -7 -8 -7 -6 0 -9 -3 -8 -7 4 -11 -64 -187
-75 -194 -5 -3 -8 -9 -7 -13 1 -4 -4 -21 -11 -39 -6 -18 -13 -34 -14 -37 -13
-35 -18 -48 -26 -65 -4 -11 -49 -123 -100 -250 -50 -126 -96 -241 -102 -255
-16 -40 -18 -56 -21 -235 -1 -93 -5 -177 -8 -185 -3 -8 -11 -28 -17 -45 -7
-16 -14 -34 -15 -40 -2 -5 -8 -23 -14 -38 -7 -16 -12 -31 -12 -35 -1 -4 -9
-25 -20 -47 -11 -22 -19 -46 -20 -53 0 -7 -5 -21 -10 -32 -24 -48 -28 -58 -35
-90 -5 -19 -9 -109 -10 -200 -1 -161 -13 -244 -40 -262 -5 -4 -7 -8 -4 -8 4 0
-5 -30 -18 -67 -22 -62 -24 -83 -24 -238 0 -164 -1 -175 -36 -300 -19 -71 -37
-136 -39 -145 -2 -8 -13 -46 -24 -85 -20 -67 -20 -72 -4 -115 20 -53 38 -68
70 -62 16 3 24 0 24 -9 0 -13 -72 -224 -99 -292 -7 -18 -11 -111 -11 -255 l0
-227 59 -175 c32 -96 76 -212 97 -258 l38 -82 646 0 647 0 28 44 c32 51 35 51
126 -6 48 -29 63 -33 140 -36 l86 -4 43 54 c24 29 49 58 55 63 14 12 40 58 38
66 -1 3 -5 37 -8 75 -4 38 -8 80 -10 94 -6 42 -15 123 -19 170 -3 25 -15 70
-29 100 -29 68 -39 92 -43 105 -1 6 -10 28 -19 50 -13 29 -18 71 -19 151 -1
108 -2 111 -31 145 -17 19 -44 49 -60 68 -34 39 -56 64 -102 115 -36 39 -39
52 -21 92 11 25 10 28 -25 56 -38 30 -38 42 -6 82 5 6 25 35 45 64 36 54 40
77 30 162 -2 19 3 51 11 70 8 19 16 40 17 45 2 6 13 33 25 60 13 28 24 55 25
60 1 6 8 20 14 32 7 13 10 23 6 23 -3 0 -2 6 3 12 10 13 34 80 39 108 4 23 12
63 18 90 3 14 8 34 10 45 4 19 47 140 65 180 14 33 39 96 65 165 13 36 47 113
74 172 28 60 48 108 44 108 -4 0 -2 4 4 8 11 6 22 29 90 180 14 31 39 85 55
118 16 34 29 67 29 73 0 6 5 11 11 11 5 0 8 4 4 9 -3 6 2 14 11 19 9 5 16 12
16 15 0 20 12 47 21 47 6 0 8 3 4 6 -3 3 4 23 17 43 12 20 38 65 57 101 44 85
124 202 115 170 -10 -35 -12 -43 -19 -60 -20 -55 -59 -178 -60 -192 -1 -10 -4
-18 -7 -18 -7 0 -29 -82 -45 -165 -3 -11 -14 -54 -26 -95 -11 -41 -22 -82 -24
-90 -2 -8 -10 -28 -18 -45 -34 -68 -57 -125 -57 -139 0 -9 -5 -16 -11 -16 -5
0 -7 -4 -4 -10 3 -5 2 -10 -2 -10 -18 0 -37 -99 -39 -195 -1 -123 -1 -121 -16
-137 -7 -7 -63 -87 -124 -178 l-111 -165 -27 -135 c-15 -74 -29 -143 -31 -153
-2 -10 -7 -27 -10 -37 -5 -14 7 -32 46 -67 28 -26 67 -63 85 -81 19 -17 39
-33 44 -33 6 -1 18 -2 28 -3 9 -1 23 -5 31 -10 10 -6 12 -5 7 2 -15 24 4 10
67 -50 156 -150 188 -178 209 -182 13 -2 30 -7 38 -10 8 -3 33 -8 54 -11 34
-5 47 0 97 34 61 42 76 41 59 -3 -5 -14 -7 -26 -4 -26 4 0 2 -6 -3 -12 -6 -7
-11 -20 -11 -28 0 -8 -3 -25 -6 -38 -5 -23 8 -41 97 -136 15 -16 28 -36 28
-45 1 -9 3 -25 4 -36 32 -214 34 -199 -62 -394 -67 -134 -86 -182 -85 -210 2
-20 4 -63 7 -95 4 -55 -11 -105 -36 -126 -3 -3 -19 -25 -34 -50 -15 -25 -31
-47 -35 -50 -7 -5 -36 -122 -32 -129 1 -3 75 -6 164 -7 684 -9 1435 -22 1843
-30 143 -3 859 -7 1592 -8 l1331 -3 5 21 c3 12 30 92 61 180 60 169 58 150 41
319 -2 20 -1 38 3 38 16 3 50 7 117 13 39 4 88 9 110 11 22 3 67 7 100 10 73
6 127 13 130 17 1 2 41 55 89 119 l87 117 -7 48 c-9 65 -11 293 -2 307 4 6 2
19 -3 29 -5 10 -6 18 -2 18 4 0 9 71 10 157 2 109 8 173 19 212 18 61 27 168
15 175 -4 3 -8 23 -9 46 -2 27 1 39 8 35 5 -3 10 -12 10 -20 0 -7 3 -15 8 -17
6 -3 56 -64 115 -139 14 -19 21 -45 16 -61 0 -2 5 -16 11 -33 7 -16 13 -43 15
-60 2 -16 9 -52 14 -80 12 -54 19 -165 11 -165 -3 0 -5 -35 -6 -78 -2 -151 -7
-224 -21 -295 -27 -142 -27 -140 -37 -390 l-6 -148 -40 -38 c-22 -21 -40 -36
-40 -34 0 7 -60 -58 -100 -106 -19 -24 -42 -51 -50 -60 -8 -9 -39 -47 -68 -84
l-54 -67 830 0 830 0 28 67 c16 37 29 70 29 73 1 3 6 15 13 28 7 12 10 22 7
22 -3 0 2 11 11 25 9 14 14 28 10 32 -3 3 -1 11 4 18 5 6 10 26 12 43 1 18 5
32 8 32 4 0 7 6 8 13 0 6 3 21 6 32 21 78 48 184 52 205 2 14 7 32 11 40 3 8
7 22 8 30 7 43 16 84 21 92 15 24 23 188 14 293 -2 30 9 146 16 156 5 8 15 77
17 117 0 6 4 12 9 12 5 0 6 5 3 10 -3 6 1 45 9 88 9 42 18 97 21 121 3 23 7
46 9 50 3 4 12 45 20 91 9 47 25 130 36 185 15 77 19 123 15 200 -3 55 -7 147
-10 205 -3 58 -7 146 -10 195 -3 50 -7 137 -10 195 -10 187 -12 204 -32 265
-21 60 -31 98 -39 145 -21 121 -27 137 -115 312 -5 10 -9 27 -9 38 0 11 -4 28
-9 38 -13 23 -23 53 -28 77 -1 11 -7 29 -12 40 -10 25 -31 85 -36 105 -5 22
-74 232 -82 250 -3 8 -7 20 -8 26 -2 7 -21 70 -43 140 -23 71 -48 156 -57 189
-9 33 -30 111 -46 174 -17 63 -37 134 -45 158 -8 24 -12 48 -9 53 3 6 2 10 -3
10 -8 0 -18 36 -26 92 -1 3 -4 10 -8 14 -5 4 -8 16 -8 26 0 10 -4 26 -9 36
-12 21 -51 130 -50 137 4 20 -47 188 -61 205 -10 12 -33 40 -52 62 -18 23 -42
51 -54 63 -11 11 -25 38 -31 60 -6 22 -20 74 -31 115 -26 96 -88 252 -145 366
-60 118 -132 268 -130 271 1 1 -11 28 -26 60 l-28 57 48 63 c50 64 59 78 121
194 l36 66 -20 44 c-11 24 -40 91 -65 149 -49 113 -47 97 -38 321 l4 116 -44
44 c-25 24 -45 52 -45 62 0 9 -4 17 -10 17 -5 0 -10 9 -10 20 0 10 -6 25 -14
32 -11 10 -4 21 38 63 28 27 69 65 90 83 43 38 41 24 50 287 3 66 5 120 6 120
1 0 3 18 5 40 1 22 6 56 9 75 3 19 10 62 16 95 5 33 12 78 14 100 2 23 6 54
10 70 3 17 8 44 10 60 2 17 7 49 11 73 4 23 8 52 10 65 1 12 6 45 10 72 4 28
8 161 8 296 l0 246 -29 54 c-16 30 -32 56 -36 57 -5 2 -8 10 -8 18 0 8 -3 14
-7 14 -5 0 -13 10 -18 23 -36 77 -71 123 -164 215 -109 110 -107 104 -86 177
9 31 -44 57 -125 62 l-67 4 -32 -39 c-17 -22 -31 -45 -31 -51 0 -12 -50 -9
-99 5 -22 7 -23 5 -19 -24 2 -18 0 -32 -5 -32 -5 0 -5 -6 1 -13 6 -7 7 -18 3
-26 -7 -10 -27 -12 -87 -6 -44 4 -99 8 -124 11 -25 2 -72 6 -105 9 -33 3 -87
8 -120 11 -81 6 -448 61 -451 67 0 1 -19 32 -42 69 -23 37 -42 72 -42 78 0 5
-5 10 -11 10 -5 0 -7 5 -4 10 3 6 2 10 -3 10 -5 0 -17 18 -28 40 -10 22 -22
40 -26 40 -5 0 -8 4 -8 10 0 15 -56 99 -82 123 -21 19 -63 56 -192 169 -17 15
-53 34 -81 43 -27 9 -59 20 -70 24 -46 21 -254 83 -286 86 -9 1 -22 6 -30 10
-7 5 -22 10 -34 12 -25 3 -60 11 -60 13 0 1 -11 3 -25 6 -14 2 -36 8 -50 14
-14 5 -38 11 -55 14 -16 3 -55 12 -85 21 -59 17 -88 21 -245 29 -55 3 -140 8
-189 12 -279 17 -479 23 -496 13z"/>
</g>
</svg>
